<?xml version="1.0" encoding="utf-8"?>
<!-- Generator: Adobe Illustrator 27.5.0, SVG Export Plug-In . SVG Version: 6.00 Build 0)  -->
<svg version="1.1" id="レイヤー_1" xmlns="http://www.w3.org/2000/svg" xmlns:xlink="http://www.w3.org/1999/xlink" x="0px"
	 y="0px" viewBox="0 0 3200 1320" style="enable-background:new 0 0 3200 1320;" xml:space="preserve">
<style type="text/css">
	.st0{fill:#FFFFFF;}
</style>
<path id="XMLID_307_" class="st0" d="M1373.3,1051.37c371.95,239.44,785.14-42.54,814.66-276.52
	c-113.19,166.42-312.19,284.73-546.19,302.62C1547.92,1084.65,1457.2,1074.98,1373.3,1051.37z"/>
<path id="XMLID_306_" class="st0" d="M2566.5,611.5c-95.81-273.02-327-306.41-327-306.41s180.71,106.46,242.3,378.19
	c61.59,271.72-92.6,533.88-92.6,533.88S2697.39,984.48,2566.5,611.5z"/>
<path id="XMLID_305_" class="st0" d="M1863.27,360.28c0,0,23.14-82.03,117.3-173.57c0,0-43.44-69.43,4.64-165.11
	C1985.21,21.6,1819.83,112.94,1863.27,360.28z"/>
<path id="XMLID_304_" class="st0" d="M2265.93,401.04c0,0,133.75,264.29,38.8,536.02c-82.38,235.75-260.33,361.35-260.33,361.35
	c257.93-68.16,427.79-321.41,385.79-590.55C2411.04,585.14,2350.92,478.98,2265.93,401.04z"/>
<path id="XMLID_303_" class="st0" d="M1986.5,1113.93c-153.98,102.53-290,115.35-290,115.35c248.94,48.7,468.21-83.27,558.29-315.17
	c37.99-97.81,44.77-200.03,25.19-295.71C2279.97,618.41,2247.72,939.99,1986.5,1113.93z"/>
<path id="XMLID_302_" class="st0" d="M2515.79,115.88c-264.07-106.64-520.59,10.54-634.51,268.75c0,0,173.23-146.12,373.01-106.5
	c340.35,67.49,485.45,448.71,354.56,790.93C2970.71,784.53,2874.37,260.69,2515.79,115.88z"/>
<path id="XMLID_301_" class="st0" d="M592.28,612.01c59.55,0,75.28,18.8,75.28,55.55c0,42.37-21.91,56.11-76.41,56.11H423.17v-17.39
	h164.61c47.75,0,61.24-6.17,61.24-38.72c0-31.15-13.76-39.28-62.08-39.28H482.72c-49.72,0-66.29-14.59-66.29-51.35
	c0-31.42,16.85-49.66,66.57-49.66h174.44v17.39H486.37c-43.54,0-51.4,10.11-51.4,32.55c0,24.41,7.3,34.79,51.4,34.79L592.28,612.01
	L592.28,612.01z"/>
<path id="XMLID_298_" class="st0" d="M756.01,723.68v-76.31h154.78c53.65,0,78.37-12.91,78.37-61.73
	c0-37.04-20.79-58.36-79.78-58.36H737.75v196.4H756.01z M905.73,544.67c48.03,0,64.04,11.79,64.04,41.25
	c0,37.32-15.17,44.05-63.2,44.05H756.01v-85.3H905.73z"/>
<path id="XMLID_297_" class="st0" d="M1050.93,527.28h18.26v179h202.25v17.39h-220.5V527.28z"/>
<path id="XMLID_296_" class="st0" d="M1287.42,527.28l118.27,129.06l118.26-129.06h23.03l-132.3,144.77v51.62h-17.98v-51.62
	l-132.31-144.77H1287.42z"/>
<path id="XMLID_295_" class="st0" d="M1834.9,723.68h-247.22v-19.64l222.78-159.92H1593.3v-16.83h241.6v19.64l-222.77,159.93h222.77
	V723.68z"/>
<path id="XMLID_292_" class="st0" d="M1895.26,723.68l30.34-46.58h178.37l30.62,46.58h21.07l-128.09-196.4h-25.28l-128.09,196.4
	H1895.26z M2014.93,541.02l77.53,118.4h-155.34L2014.93,541.02z"/>
</svg>
